<svg id="visual" viewBox="0 0 900 600" width="900" height="600" xmlns="http://www.w3.org/2000/svg" xmlns:xlink="http://www.w3.org/1999/xlink" version="1.1"><path d="M0 416L21.5 404.8C43 393.7 86 371.3 128.8 358.2C171.7 345 214.3 341 257.2 347.2C300 353.3 343 369.7 385.8 382C428.7 394.3 471.3 402.7 514.2 402.2C557 401.7 600 392.3 642.8 387.3C685.7 382.3 728.3 381.7 771.2 387.2C814 392.7 857 404.3 878.5 410.2L900 416L900 601L878.5 601C857 601 814 601 771.2 601C728.3 601 685.7 601 642.8 601C600 601 557 601 514.2 601C471.3 601 428.7 601 385.8 601C343 601 300 601 257.2 601C214.3 601 171.7 601 128.8 601C86 601 43 601 21.5 601L0 601Z" fill="#212121"></path><path d="M0 460L21.5 465.2C43 470.3 86 480.7 128.8 481.3C171.7 482 214.3 473 257.2 469.8C300 466.7 343 469.3 385.8 474.3C428.7 479.3 471.3 486.7 514.2 473.8C557 461 600 428 642.8 423.8C685.7 419.7 728.3 444.3 771.2 443.3C814 442.3 857 415.7 878.5 402.3L900 389L900 601L878.5 601C857 601 814 601 771.2 601C728.3 601 685.7 601 642.8 601C600 601 557 601 514.2 601C471.3 601 428.7 601 385.8 601C343 601 300 601 257.2 601C214.3 601 171.7 601 128.8 601C86 601 43 601 21.5 601L0 601Z" fill="#272727"></path><path d="M0 554L21.5 540.8C43 527.7 86 501.3 128.8 497.5C171.7 493.7 214.3 512.3 257.2 512.7C300 513 343 495 385.8 496C428.7 497 471.3 517 514.2 525.2C557 533.3 600 529.7 642.8 530C685.7 530.3 728.3 534.7 771.2 528.2C814 521.7 857 504.3 878.5 495.7L900 487L900 601L878.5 601C857 601 814 601 771.2 601C728.3 601 685.7 601 642.8 601C600 601 557 601 514.2 601C471.3 601 428.7 601 385.8 601C343 601 300 601 257.2 601C214.3 601 171.7 601 128.8 601C86 601 43 601 21.5 601L0 601Z" fill="#2d2d2d"></path></svg>